<?xml version="1.0" encoding="UTF-8"?>
<svg id="Layer_2" data-name="Layer 2" xmlns="http://www.w3.org/2000/svg" viewBox="0 0 103.69 89.76">
  <g id="Layer_18" data-name="Layer 18">
    <g>
      <path d="M84.6,44.83l-.06-.05c-6.45-5.52-13.96-9.14-21.78-10.87.19.83.35,1.67.49,2.51.04.23.07.46.11.69.1.61.18,1.23.26,1.85.03.27.06.53.09.8.06.62.11,1.24.16,1.87.01.23.03.45.05.68.04.85.07,1.7.07,2.55h0s0,0,0,0h0c0,.84-.03,1.69-.07,2.53-.01.23-.03.45-.04.68-.04.64-.09,1.27-.15,1.9-.02.24-.05.48-.08.72-.08.68-.17,1.37-.28,2.05-.03.16-.05.32-.07.48-.14.87-.31,1.73-.5,2.59,7.85-1.76,15.37-5.42,21.82-10.98h.01,0s0,0,0,0h-.01Z"/>
      <path d="M40.26,52.64c-.1-.61-.18-1.23-.26-1.85-.03-.27-.06-.53-.09-.8-.06-.62-.11-1.24-.16-1.87-.01-.23-.03-.45-.05-.68-.04-.85-.07-1.7-.07-2.55h0s0,0,0,0h0c0-.84.03-1.69.07-2.53.01-.23.03-.45.04-.68.04-.64.09-1.27.15-1.9.02-.24.05-.48.08-.72.08-.68.17-1.36.28-2.04.03-.16.05-.32.07-.48.14-.87.31-1.73.5-2.59,0,0,0,0,0,0-7.85,1.76-15.37,5.42-21.82,10.98h-.01,0s0,0,0,0h0s.01,0,.01,0l.06.05c6.45,5.52,13.96,9.14,21.78,10.87-.19-.83-.35-1.67-.49-2.51-.04-.23-.07-.46-.11-.69Z"/>
      <path d="M51.77,12.07h0s0,0,0,0h0s-.05.07-.05.07c-5.52,6.45-9.14,13.96-10.87,21.78,0,0,0,0,0,0,.83-.19,1.67-.35,2.51-.49.23-.04.46-.07.7-.11.61-.1,1.23-.18,1.84-.26.27-.03.54-.06.8-.09.62-.06,1.24-.11,1.86-.16.23-.01.45-.03.68-.05.85-.04,1.7-.07,2.55-.07h0s0,0,0,0h0c.84,0,1.69.03,2.53.07.23.01.45.03.68.04.64.04,1.27.09,1.9.15.24.02.48.05.72.08.68.08,1.36.17,2.04.28.16.03.32.05.48.07.87.14,1.73.31,2.59.5-1.76-7.85-5.42-15.37-10.98-21.82h0Z"/>
      <path d="M59.57,56.42c-.61.1-1.23.18-1.85.26-.27.03-.53.06-.8.09-.62.06-1.24.11-1.87.16-.23.01-.45.03-.68.05-.85.04-1.7.07-2.55.07h0s0,0,0,0h0c-.84,0-1.69-.03-2.53-.07-.23-.01-.45-.03-.68-.04-.64-.04-1.27-.09-1.9-.15-.24-.02-.48-.05-.72-.08-.68-.08-1.36-.17-2.04-.28-.16-.03-.32-.05-.48-.07-.87-.14-1.73-.31-2.59-.5,1.76,7.85,5.42,15.37,10.98,21.82h0s0,0,0,0c0,0,0,0,0,0h0s0-.01,0-.01h0s.05-.06.05-.06c5.52-6.45,9.14-13.96,10.87-21.78-.83.19-1.67.35-2.51.49-.23.04-.46.07-.69.11Z"/>
      <path d="M12.94,67.32h0c7.98,13.88,22.77,22.43,38.78,22.43h0c-7.99-13.88-22.78-22.43-38.78-22.43Z"/>
      <path d="M51.8,89.63h0s-.07.12-.07.12h.14c16.02,0,30.82-8.54,38.85-22.4h-.26c-15.94,0-30.67,8.49-38.66,22.28Z"/>
      <path d="M90.76,22.53l-.05-.09h0C82.7,8.56,67.9.01,51.87,0h-.05l.02.03c8.01,13.87,22.81,22.42,38.84,22.43h0l-.1.17c-7.96,13.74-7.96,30.69-.02,44.44l.16.28,12.98-22.42-12.93-22.4Z"/>
      <path d="M12.97,22.48l-.02-.04L0,44.83l12.94,22.49h0c8.01-13.87,8.02-30.96.02-44.84Z"/>
      <path d="M51.8.05L51.82,0C35.79-.01,20.98,8.53,12.96,22.41h0s0,0,0,0v.02s.04,0,.04,0c16.01,0,30.8-8.53,38.8-22.39Z"/>
    </g>
  </g>
</svg>